<svg id="svg" xmlns="http://www.w3.org/2000/svg" xmlns:xlink="http://www.w3.org/1999/xlink" width="400" height="400" viewBox="0, 0, 400,400"><g id="svgg"><path id="path0" d="M392.641 52.690 C 375.711 60.055,361.312 85.255,329.166 163.780 C 302.742 228.330,296.197 242.254,283.040 261.911 C 263.210 291.538,248.684 279.390,202.416 194.488 C 128.835 59.466,103.505 72.712,26.249 286.614 C 18.897 306.969,9.984 331.336,6.441 340.765 C 0.330 357.028,-3.997 400.106,1.440 390.551 C 2.911 387.966,22.815 334.747,41.785 282.677 C 69.740 205.945,86.995 165.939,101.605 143.982 C 128.931 102.912,141.177 110.615,189.973 199.571 C 239.195 289.303,259.487 305.937,286.372 278.589 C 300.857 263.853,309.103 247.139,346.507 156.693 C 370.311 99.134,382.534 76.141,394.333 66.727 C 399.028 62.980,400.000 61.192,400.000 56.299 C 400.000 49.735,399.735 49.605,392.641 52.690 " stroke="none" fill="#0A2979" fill-rule="evenodd"></path></g></svg>